<svg width="53" height="62" viewBox="0 0 53 62" fill="none" xmlns="http://www.w3.org/2000/svg">
<path fill-rule="evenodd" clip-rule="evenodd" d="M5.55386 43.6569L13.796 58.2202C14.1946 58.9244 13.9445 59.8266 13.2402 60.2251L10.4368 61.8118C9.73251 62.2103 8.83042 61.9603 8.43189 61.2562L0.189723 46.6927C-0.208797 45.9884 0.0412471 45.0864 0.745507 44.6877L3.54898 43.1011C4.25311 42.7026 5.15534 42.9526 5.55386 43.6569ZM15.4105 41.7957L8.94529 45.5389L13.7702 54.0641L14.785 53.4782C15.0157 53.3443 15.2902 53.3073 15.5482 53.3754L28.7006 56.8996C30.3256 57.3351 31.8574 57.1395 33.2942 56.255C39.3408 52.5383 45.3836 48.8148 51.4273 45.0933C52.2868 44.5642 52.3888 43.0961 51.8802 42.2765C50.729 40.4216 47.4473 42.0372 46.1379 42.7998L36.1459 48.6195C34.5447 49.5519 32.8469 49.809 31.0273 49.518C28.296 49.0585 25.7382 48.2586 23.0739 47.5449C22.8172 47.4737 22.5989 47.3039 22.4666 47.0726C22.3344 46.8413 22.2987 46.5672 22.3675 46.3097C22.4363 46.0523 22.6039 45.8325 22.8339 45.698C23.064 45.5634 23.3378 45.5252 23.5958 45.5915C25.7511 46.1688 27.8883 46.8635 30.073 47.3159C31.1224 47.4441 31.9835 47.1312 32.2757 46.0407C32.5379 45.0618 31.919 44.1443 30.9974 43.821C27.9891 43.2692 25.0756 42.2159 22.7841 41.3875C21.9881 41.0997 21.2684 40.8395 20.6736 40.6467C18.8053 40.0409 17.0102 40.8696 15.4105 41.7957ZM30.3082 14.9178C27.7572 14.9178 25.6892 16.9857 25.6892 19.5367C25.6892 22.0877 27.7572 24.1556 30.3082 24.1556C32.8591 24.1556 34.9271 22.0877 34.9271 19.5367C34.9269 16.9857 32.859 14.9178 30.3082 14.9178ZM38.1842 33.5733H22.4319C22.2777 33.574 22.1254 33.5392 21.9866 33.4718C21.8479 33.4044 21.7265 33.306 21.6317 33.1844C21.5369 33.0627 21.4713 32.9209 21.4399 32.7699C21.4085 32.6189 21.4121 32.4627 21.4505 32.3133C22.4504 28.3526 26.0367 25.421 30.308 25.421C34.5795 25.421 38.1658 28.3525 39.1657 32.3134C39.2041 32.4628 39.2077 32.619 39.1763 32.77C39.1449 32.921 39.0792 33.0628 38.9845 33.1844C38.8897 33.3061 38.7683 33.4044 38.6295 33.4719C38.4908 33.5393 38.3385 33.574 38.1842 33.5733ZM43.7178 12.4452C41.1668 12.4452 39.0989 14.5132 39.0989 17.0642C39.0989 19.6151 41.1668 21.6831 43.7178 21.6831C46.2686 21.6831 48.3367 19.6151 48.3367 17.0642C48.3367 14.5132 46.2686 12.4452 43.7178 12.4452ZM51.594 31.1008C51.7482 31.1014 51.9006 31.0667 52.0393 30.9993C52.178 30.9318 52.2994 30.8335 52.3942 30.7118C52.489 30.5901 52.5546 30.4483 52.586 30.2973C52.6175 30.1463 52.6138 29.9901 52.5754 29.8407C51.5755 25.8798 47.9892 22.9483 43.7178 22.9483C41.138 22.9483 38.8083 24.0181 37.1472 25.7378C38.8793 27.0803 40.2168 28.9298 40.9218 31.1007L51.594 31.1008ZM16.8987 12.4452C19.4495 12.4452 21.5176 14.5132 21.5176 17.0642C21.5176 19.6151 19.4496 21.6831 16.8987 21.6831C14.3477 21.6831 12.2797 19.6151 12.2797 17.0642C12.2797 14.5132 14.3477 12.4452 16.8987 12.4452ZM9.02231 31.1008H19.6945C20.3995 28.93 21.737 27.0804 23.4691 25.7379C21.8079 24.0182 19.4783 22.9484 16.8985 22.9484C12.6271 22.9484 9.04066 25.8799 8.04087 29.8409C8.00253 29.9902 7.99895 30.1464 8.03039 30.2974C8.06182 30.4484 8.12745 30.5901 8.22222 30.7118C8.31699 30.8335 8.43839 30.9318 8.57709 30.9992C8.71579 31.0667 8.86809 31.1014 9.02231 31.1008ZM23.6979 0C26.2489 0 28.3168 2.06794 28.3168 4.61891C28.3168 7.16989 26.2489 9.23783 23.6979 9.23783C21.147 9.23783 19.079 7.16989 19.079 4.61891C19.079 2.06794 21.147 0 23.6979 0ZM23.3497 18.6555C23.4776 18.1348 23.5422 17.6004 23.542 17.0642C23.542 14.5549 22.1506 12.3709 20.0975 11.2406C21.2024 10.7663 22.4194 10.5032 23.6979 10.5032C26.0795 10.5032 28.2476 11.4148 29.8737 12.9079C26.7018 13.1128 24.1356 15.5446 23.723 18.6555H23.3497ZM36.9184 0C34.3674 0 32.2995 2.06794 32.2995 4.61891C32.2995 7.16989 34.3674 9.23783 36.9184 9.23783C39.4694 9.23783 41.5373 7.16989 41.5373 4.61891C41.5373 2.06794 39.4694 0 36.9184 0ZM37.2668 18.6555H36.8933C36.5843 16.3255 35.0673 14.3766 32.9925 13.4587C32.6551 12.9525 32.2771 12.4746 31.8621 12.0298C33.3099 11.0654 35.0484 10.503 36.9185 10.503C38.1564 10.5016 39.3816 10.7526 40.5193 11.2406C38.4662 12.3711 37.0745 14.5553 37.0745 17.064C37.0741 17.6003 37.1387 18.1347 37.2668 18.6555ZM3.66386 45.8398C3.53327 45.8582 3.40761 45.9023 3.29409 45.9694C3.18058 46.0365 3.08144 46.1254 3.00239 46.231C2.92333 46.3365 2.86591 46.4566 2.83343 46.5845C2.80095 46.7123 2.79404 46.8452 2.81311 46.9757C2.83218 47.1062 2.87684 47.2317 2.94454 47.3448C3.01224 47.458 3.10163 47.5567 3.20759 47.6352C3.31354 47.7137 3.43397 47.7705 3.56194 47.8024C3.68992 47.8342 3.82292 47.8404 3.95332 47.8207C4.21492 47.7811 4.45022 47.6395 4.60775 47.427C4.76528 47.2144 4.83224 46.9481 4.79398 46.6863C4.75572 46.4245 4.61536 46.1885 4.40359 46.0298C4.19182 45.8712 3.92586 45.8029 3.66386 45.8398Z" fill="url(#paint0_linear_3248_11120)"/>
<defs>
<linearGradient id="paint0_linear_3248_11120" x1="4.53881" y1="-46.4405" x2="58.2717" y2="-43.4458" gradientUnits="userSpaceOnUse">
<stop stop-color="#FF405E"/>
<stop offset="1" stop-color="#B8509C"/>
</linearGradient>
</defs>
</svg>
