<svg width="37" height="37" viewBox="0 0 37 37" fill="none" xmlns="http://www.w3.org/2000/svg">
<circle cx="18.2988" cy="18.4819" r="18.0371" fill="white"/>
<path d="M23.8817 13.2026L16.8254 12.53C16.6383 12.5155 16.4528 12.575 16.3091 12.6958C16.1654 12.8166 16.0749 12.9891 16.0571 13.176C16.0393 13.3629 16.0956 13.5493 16.2139 13.6951C16.3322 13.8409 16.503 13.9343 16.6896 13.9554L22.0251 14.4639L12.3167 22.4828C12.1703 22.6037 12.0779 22.7779 12.0599 22.9669C12.0419 23.1559 12.0997 23.3444 12.2206 23.4908C12.3415 23.6372 12.5157 23.7296 12.7047 23.7476C12.8938 23.7656 13.0822 23.7078 13.2286 23.5869L22.9371 15.568L22.4285 20.9036C22.4179 20.998 22.4261 21.0937 22.4528 21.1849C22.4795 21.2762 22.5241 21.3612 22.584 21.435C22.6439 21.5089 22.718 21.57 22.8018 21.6149C22.8856 21.6599 22.9775 21.6876 23.0721 21.6967C23.1667 21.7057 23.2622 21.6958 23.353 21.6675C23.4438 21.6392 23.528 21.5931 23.6008 21.5319C23.6736 21.4708 23.7334 21.3957 23.7769 21.3111C23.8203 21.2266 23.8465 21.1342 23.8539 21.0394L24.5264 13.9832C24.5444 13.7942 24.4866 13.6057 24.3657 13.4594C24.2448 13.313 24.0707 13.2206 23.8817 13.2026Z" fill="black"/>
</svg>
