<svg width="41" height="41" viewBox="0 0 41 41" fill="none" xmlns="http://www.w3.org/2000/svg">
<circle cx="20.1105" cy="20.1105" r="20.1105" transform="matrix(-1 0 0 1 40.2211 0.359375)" fill="url(#paint0_linear_2864_5199)"/>
<path d="M16.8343 13.8127C16.6377 13.809 16.4448 13.8666 16.2823 13.9773C16.1199 14.0881 15.9959 14.2467 15.9275 14.431C15.8591 14.6154 15.8497 14.8164 15.9006 15.0063C15.9515 15.1963 16.0601 15.3657 16.2115 15.4911L22.0057 20.4514L16.208 25.4117C16.102 25.4889 16.0133 25.5872 15.9473 25.7005C15.8813 25.8137 15.8394 25.9394 15.8245 26.0696C15.8095 26.1998 15.8216 26.3317 15.8602 26.457C15.8987 26.5823 15.9629 26.6982 16.0485 26.7975C16.1341 26.8967 16.2393 26.9772 16.3576 27.0337C16.4758 27.0902 16.6045 27.1216 16.7355 27.1259C16.8665 27.1302 16.997 27.1073 17.1187 27.0587C17.2404 27.01 17.3507 26.9366 17.4427 26.8432L24.0707 21.1779C24.1749 21.0889 24.2586 20.9783 24.316 20.8538C24.3734 20.7293 24.4031 20.5939 24.4031 20.4568C24.4031 20.3197 24.3734 20.1842 24.316 20.0597C24.2586 19.9352 24.1749 19.8247 24.0707 19.7356L17.4427 14.0524C17.2747 13.9029 17.0591 13.8179 16.8343 13.8127Z" fill="white"/>
<defs>
<linearGradient id="paint0_linear_2864_5199" x1="3.47016" y1="-30.1264" x2="44.5024" y2="-27.4312" gradientUnits="userSpaceOnUse">
<stop stop-color="#FF405E"/>
<stop offset="1" stop-color="#B8509C"/>
</linearGradient>
</defs>
</svg>
