<svg width="41" height="41" viewBox="0 0 41 41" fill="none" xmlns="http://www.w3.org/2000/svg">
<circle cx="20.8893" cy="20.4698" r="20.1105" fill="url(#paint0_linear_2864_5203)"/>
<path d="M24.1656 13.8127C24.3622 13.809 24.5551 13.8666 24.7175 13.9773C24.88 14.0881 25.004 14.2467 25.0724 14.431C25.1408 14.6154 25.1502 14.8164 25.0993 15.0063C25.0484 15.1963 24.9397 15.3657 24.7883 15.4911L18.9942 20.4514L24.7919 25.4117C24.8978 25.4889 24.9866 25.5872 25.0526 25.7005C25.1186 25.8137 25.1604 25.9394 25.1754 26.0696C25.1904 26.1998 25.1782 26.3317 25.1397 26.457C25.1011 26.5823 25.037 26.6982 24.9514 26.7975C24.8658 26.8967 24.7606 26.9772 24.6423 27.0337C24.524 27.0902 24.3954 27.1216 24.2643 27.1259C24.1333 27.1302 24.0029 27.1073 23.8812 27.0587C23.7595 27.01 23.6492 26.9366 23.5572 26.8432L16.9292 21.1779C16.825 21.0889 16.7413 20.9783 16.6839 20.8538C16.6265 20.7293 16.5968 20.5939 16.5968 20.4568C16.5968 20.3197 16.6265 20.1842 16.6839 20.0597C16.7413 19.9352 16.825 19.8247 16.9292 19.7356L23.5572 14.0524C23.7252 13.9029 23.9408 13.8179 24.1656 13.8127Z" fill="white"/>
<defs>
<linearGradient id="paint0_linear_2864_5203" x1="4.24897" y1="-29.767" x2="45.2812" y2="-27.0718" gradientUnits="userSpaceOnUse">
<stop stop-color="#FF405E"/>
<stop offset="1" stop-color="#B8509C"/>
</linearGradient>
</defs>
</svg>
