<svg width="106" height="107" viewBox="0 0 106 107" fill="none" xmlns="http://www.w3.org/2000/svg">
<circle opacity="0.1" cx="53" cy="53.7009" r="53" fill="#F84063"/>
<path d="M68.0252 61.1343L63.5902 56.6992C62.0062 55.1153 59.3135 55.7489 58.68 57.808C58.2048 59.2336 56.6208 60.0256 55.1953 59.7087C52.0274 58.9168 47.7508 54.7985 46.9588 51.4722C46.4836 50.0466 47.434 48.4627 48.8595 47.9876C50.9187 47.354 51.5522 44.6613 49.9683 43.0774L45.5333 38.6424C44.2661 37.5336 42.3654 37.5336 41.2566 38.6424L38.2472 41.6518C35.2377 44.8197 38.564 53.2146 46.0085 60.6591C53.453 68.1036 61.8478 71.5883 65.0157 68.4204L68.0252 65.4109C69.134 64.1437 69.134 62.243 68.0252 61.1343Z" fill="url(#paint0_linear_2716_365)"/>
<defs>
<linearGradient id="paint0_linear_2716_365" x1="39.8795" y1="14.0067" x2="72.2332" y2="16.1274" gradientUnits="userSpaceOnUse">
<stop stop-color="#FF405E"/>
<stop offset="1" stop-color="#B8509C"/>
</linearGradient>
</defs>
</svg>
