<svg width="106" height="107" viewBox="0 0 106 107" fill="none" xmlns="http://www.w3.org/2000/svg">
<circle opacity="0.1" cx="53" cy="53.7009" r="53" fill="#F84063"/>
<path d="M53 32.8484C44.6716 32.8484 37.896 39.624 37.896 47.9523C37.896 58.2881 51.4126 73.4615 51.9881 74.1024C52.5287 74.7044 53.4724 74.7034 54.012 74.1024C54.5874 73.4615 68.1041 58.2881 68.1041 47.9523C68.1039 39.624 61.3284 32.8484 53 32.8484ZM53 55.5516C48.8098 55.5516 45.4009 52.1426 45.4009 47.9523C45.4009 43.7621 48.8099 40.3532 53 40.3532C57.1902 40.3532 60.5991 43.7622 60.5991 47.9524C60.5991 52.1427 57.1902 55.5516 53 55.5516Z" fill="url(#paint0_linear_2716_374)"/>
<defs>
<linearGradient id="paint0_linear_2716_374" x1="40.5023" y1="1.61035" x2="71.3827" y2="3.07955" gradientUnits="userSpaceOnUse">
<stop stop-color="#FF405E"/>
<stop offset="1" stop-color="#B8509C"/>
</linearGradient>
</defs>
</svg>
