<svg width="106" height="107" viewBox="0 0 106 107" fill="none" xmlns="http://www.w3.org/2000/svg">
<circle opacity="0.1" cx="53" cy="53.7009" r="53" fill="#F84063"/>
<path d="M56.1539 57.9532C55.215 58.5791 54.1244 58.91 53 58.91C51.8757 58.91 50.7851 58.5791 49.8462 57.9532L34.3819 47.6433C34.2965 47.5862 34.2127 47.5268 34.1306 47.4652V64.3589C34.1306 66.2959 35.7025 67.833 37.6047 67.833H68.3952C70.3321 67.833 71.8693 66.2612 71.8693 64.3589V47.4651C71.7871 47.5269 71.7031 47.5865 71.6175 47.6436L56.1539 57.9532Z" fill="url(#paint0_linear_2716_369)"/>
<path d="M35.6085 45.8038L51.0728 56.1137C51.6581 56.504 52.329 56.6991 52.9999 56.6991C53.6709 56.6991 54.3419 56.5039 54.9273 56.1137L70.3915 45.8038C71.317 45.1872 71.8694 44.1553 71.8694 43.0415C71.8694 41.1265 70.3114 39.5686 68.3965 39.5686H37.6035C35.6886 39.5687 34.1306 41.1266 34.1306 43.0434C34.13 43.5897 34.2647 44.1277 34.5226 44.6093C34.7804 45.091 35.1535 45.5013 35.6085 45.8038Z" fill="url(#paint1_linear_2716_369)"/>
<defs>
<linearGradient id="paint0_linear_2716_369" x1="37.3866" y1="32.209" x2="75.4883" y2="36.8462" gradientUnits="userSpaceOnUse">
<stop stop-color="#FF405E"/>
<stop offset="1" stop-color="#B8509C"/>
</linearGradient>
<linearGradient id="paint1_linear_2716_369" x1="37.3866" y1="26.7375" x2="75.2597" y2="32.2179" gradientUnits="userSpaceOnUse">
<stop stop-color="#FF405E"/>
<stop offset="1" stop-color="#B8509C"/>
</linearGradient>
</defs>
</svg>
