<svg width="14" height="10" viewBox="0 0 14 10" fill="none" xmlns="http://www.w3.org/2000/svg">
<path d="M13.244 1.89046C13.2475 1.70085 13.192 1.51483 13.0851 1.35815C12.9783 1.20147 12.8254 1.08187 12.6476 1.0159C12.4698 0.949939 12.2759 0.940868 12.0927 0.989948C11.9095 1.03903 11.7461 1.14383 11.6251 1.28985L6.84096 6.87826L2.05682 1.2864C1.98235 1.18424 1.88751 1.09863 1.77829 1.03497C1.66907 0.971306 1.54783 0.930975 1.42224 0.916521C1.29665 0.902066 1.16943 0.913802 1.0486 0.950988C0.927769 0.988174 0.815962 1.05 0.720229 1.13257C0.624497 1.21514 0.54692 1.31666 0.492393 1.43071C0.437867 1.54477 0.407577 1.66889 0.403431 1.79525C0.399285 1.9216 0.421375 2.04744 0.468308 2.16482C0.515242 2.28221 0.585999 2.38859 0.676114 2.47726L6.14025 8.86993C6.22613 8.97046 6.33277 9.05119 6.45285 9.10654C6.57292 9.16189 6.70357 9.19055 6.83578 9.19055C6.968 9.19055 7.09865 9.16189 7.21872 9.10654C7.3388 9.05119 7.44544 8.97046 7.53131 8.86993L13.0127 2.47726C13.1569 2.31526 13.2389 2.10729 13.244 1.89046Z" fill="black"/>
</svg>
