<svg width="14" height="9" viewBox="0 0 14 9" fill="none" xmlns="http://www.w3.org/2000/svg">
<path d="M13.6773 1.16454C13.6808 0.97493 13.6253 0.788912 13.5185 0.632231C13.4117 0.475549 13.2587 0.355951 13.0809 0.289986C12.9031 0.224021 12.7092 0.21495 12.526 0.26403C12.3429 0.31311 12.1795 0.417913 12.0585 0.563936L7.27431 6.15234L2.49017 0.560483C2.4157 0.458326 2.32086 0.372714 2.21164 0.309051C2.10242 0.245389 1.98118 0.205057 1.85559 0.190603C1.73 0.176148 1.60277 0.187884 1.48195 0.22507C1.36112 0.262256 1.24931 0.324084 1.15358 0.406653C1.05785 0.489222 0.980269 0.590739 0.925743 0.704796C0.871217 0.818853 0.840926 0.942975 0.836781 1.06933C0.832635 1.19568 0.854725 1.32152 0.901658 1.43891C0.948591 1.55629 1.01935 1.66268 1.10946 1.75134L6.5736 8.14401C6.65948 8.24454 6.76612 8.32527 6.8862 8.38062C7.00627 8.43597 7.13692 8.46463 7.26913 8.46463C7.40135 8.46463 7.532 8.43597 7.65207 8.38062C7.77214 8.32527 7.87879 8.24454 7.96466 8.14401L13.4461 1.75134C13.5903 1.58935 13.6723 1.38137 13.6773 1.16454Z" fill="black"/>
</svg>
