<svg width="33" height="33" viewBox="0 0 33 33" fill="none" xmlns="http://www.w3.org/2000/svg">
<path d="M32.8715 16.3246C32.8715 25.1471 25.7215 32.2997 16.8998 32.3037H16.7273C15.9527 32.2956 15.1797 32.2318 14.4143 32.1126C13.7876 32.0158 13.1672 31.881 12.5568 31.7092C9.20499 30.7634 6.25382 28.7487 4.1521 25.9717C2.05039 23.1947 0.913142 19.8073 0.91333 16.3246C0.91333 7.50083 8.06531 0.345526 16.8924 0.345526H16.8998C19.0736 0.343582 21.2249 0.786604 23.2212 1.64732C25.2174 2.50803 27.0163 3.76823 28.5072 5.35031C31.3113 8.31607 32.873 12.2431 32.8715 16.3246Z" fill="white"/>
<path d="M12.8597 11.5722V12.2912H10.5368L4.01196 6.86566C4.41527 6.31703 4.85338 5.79486 5.32358 5.30237L12.8597 11.5722ZM29.7936 6.89495L23.3067 12.2879H20.9252V11.6208L28.4873 5.32967L28.5073 5.35031C28.9431 5.8098 29.3509 6.29516 29.7283 6.80374L29.7936 6.89495ZM12.8597 20.3567V21.0757L5.32358 27.3469C5.257 27.2803 5.19042 27.2084 5.12784 27.1385C4.73141 26.7077 4.3591 26.2554 4.01263 25.7836L10.5374 20.3567H12.8597ZM29.7942 25.7536C29.3926 26.3027 28.9563 26.8255 28.4879 27.3189L20.9252 21.0271V20.3567H23.3067L29.7942 25.7536Z" fill="#C8102E"/>
<path d="M7.29508 12.2912H1.42676C1.76014 11.0127 2.25221 9.78098 2.89151 8.62469L7.29508 12.2912ZM7.16259 20.3567L2.84424 23.948C2.22713 22.8131 1.7511 21.6071 1.42676 20.3567H7.16259ZM12.8598 23.7336V31.7897C12.7586 31.7638 12.6601 31.7365 12.5569 31.7078C10.4631 31.1182 8.51236 30.1058 6.82503 28.7331L12.8598 23.7336ZM12.8598 0.858849V8.78848L6.91491 3.84295C8.66436 2.44082 10.6902 1.42393 12.8598 0.858849ZM26.9614 3.91751L20.9253 8.92097V0.859514L21.0165 0.882817C23.1904 1.46273 25.2166 2.49704 26.9614 3.91751ZM32.3583 12.2912H26.6325L30.9408 8.70658C31.5573 9.83938 32.0333 11.0431 32.3583 12.2912ZM27.0126 28.6938C25.2322 30.1535 23.1565 31.21 20.9286 31.7904V23.6324L27.0126 28.6938ZM32.3583 20.3567C32.0409 21.5769 31.5794 22.755 30.9834 23.8661L26.7656 20.3567H32.3583Z" fill="#012169"/>
<path d="M32.8715 16.1575V16.4764C32.8646 17.2215 32.8061 17.9652 32.6964 18.7022H19.27V32.1279C18.5376 32.2372 17.7986 32.2959 17.0582 32.3037H16.7253C15.9846 32.2961 15.2454 32.2371 14.5129 32.1273V18.7022H1.0891C0.979845 17.9689 0.921116 17.229 0.91333 16.4877L0.91333 16.1728C0.920218 15.4275 0.978726 14.6836 1.08843 13.9464H14.5149V0.52129C15.2121 0.417056 15.9153 0.358341 16.6201 0.34552L17.1354 0.34552C17.8081 0.355137 18.4794 0.407172 19.1455 0.501316L19.27 0.519958V13.9464H32.6958C32.805 14.6785 32.8637 15.4173 32.8715 16.1575Z" fill="#C8102E"/>
</svg>
