<svg width="94" height="85" viewBox="0 0 94 85" fill="none" xmlns="http://www.w3.org/2000/svg">
<path d="M78.8725 49.3775H70.6606V66.8639C70.6606 67.6046 70.5962 68.4258 70.4674 69.3275C70.3386 70.2292 70.0165 71.0826 69.5013 71.8876C68.986 72.6605 68.197 73.3207 67.1343 73.8681C66.0716 74.4156 64.6064 74.6893 62.7386 74.6893H42.064C40.5182 74.6893 39.2623 74.5444 38.2962 74.2546C37.3301 73.9648 36.5733 73.5461 36.0258 72.9987C35.4784 72.4512 35.1081 71.7588 34.9148 70.9215C34.7216 70.0843 34.625 69.1021 34.625 67.9749V12.086C34.625 10.9588 34.7216 9.97663 34.9148 9.13934C35.1081 8.30206 35.4784 7.60968 36.0258 7.06223C36.5733 6.48256 37.3301 6.04782 38.2962 5.75799C39.2623 5.46816 40.5182 5.32324 42.064 5.32324H63.6081C65.4758 5.32324 66.8928 5.59697 67.8589 6.14443C68.8572 6.69189 69.5496 7.38426 69.936 8.22155C70.3547 9.02663 70.5801 9.89612 70.6123 10.83C70.6445 11.7317 70.6606 12.569 70.6606 13.3419V42.4215H78.8725V7.59358C78.8725 7.04612 79.0174 6.53087 79.3072 6.04782C79.597 5.56477 80.1606 5.32324 80.9979 5.32324H86.0216C86.3114 5.32324 86.5852 5.33934 86.8428 5.37155C87.1326 5.40375 87.3742 5.50036 87.5674 5.66138C87.7928 5.79019 87.9538 6.01562 88.0504 6.33765C88.1792 6.62748 88.2436 7.04612 88.2436 7.59358V42.4215H92.8809C93.5572 42.4215 93.8953 42.7597 93.8953 43.436V48.3148C93.8953 49.0232 93.5572 49.3775 92.8809 49.3775H88.2436V72.419C88.2436 72.9665 88.1792 73.4012 88.0504 73.7232C87.9538 74.0131 87.7928 74.2385 87.5674 74.3995C87.3742 74.5283 87.1326 74.6088 86.8428 74.641C86.5852 74.6732 86.3114 74.6893 86.0216 74.6893H80.853C80.0157 74.6893 79.4682 74.4478 79.2106 73.9648C78.9852 73.4817 78.8725 72.9665 78.8725 72.419V49.3775Z" fill="url(#paint0_linear_2460_7988)"/>
<path d="M16.4827 40.9983C15.0335 42.0851 5.97532 48.2429 0.902668 50.0539C-1.6337 42.8092 11.1269 40.9983 15.0335 35.2029C20.6333 25.4184 22.1592 21.8005 23.0047 15.2804C22.6423 8.88112 25.6134 -2.97568 40.3963 0.791452C58.8508 5.49422 59.5975 9.47458 60.6823 15.2577L60.6866 15.2804C61.411 21.4384 58.5124 26.8717 60.6866 31.9427C63.2227 35.2029 66.1213 35.9273 68.2954 40.2738C71.6083 46.8969 66.7253 54.7628 63.5852 58.0228L53.4399 49.3296L52.3529 48.9674C53.802 53.6766 61.411 56.5741 61.7736 67.0783C61.9861 73.2364 57.0631 77.5831 54.1645 77.2208C55.9761 69.6141 49.3843 57.2985 42.4089 48.9671C37.8599 43.5337 38.5845 38.1007 38.9468 34.1162C41.3623 34.3577 43.2947 36.6518 48.005 36.2895C51.9906 35.5651 55.2515 23.2495 53.8022 14.1939C53.4397 12.7452 50.9036 10.5717 49.0921 10.2093C48.005 20.3517 36.0482 17.8161 35.3237 30.1315C32.0626 18.1784 38.2222 20.3517 42.2079 13.4692C25.9033 21.0759 32.0628 26.147 36.7731 43.5338C40.5412 57.4431 37.3769 72.2702 35.3237 77.945L33.2515 81.1606L32.1133 82.6177L31.658 83.3007L30.884 83.847L29.6547 84.439L28.2433 84.6211L26.8318 84.53L25.4204 84.2568L22.6886 83.4373L19.8658 82.4356L18.591 81.8436L17.4527 81.1606L16.2234 79.8857L15.1307 78.4287L14.6299 77.6547L14.3088 76.8583C13.9463 75.4097 13.584 72.1497 14.3088 70.3383C14.671 67.803 23.3668 56.2118 23.7293 48.9671C16.4826 61.6452 13.9463 63.0941 12.1349 67.0783C10.6856 70.3383 10.2025 74.0813 10.6856 76.8583C11.3385 80.6115 8.42176 82.4356 1.54316 73.4916C-2.24392 64.6035 2.0381 60.309 2.77973 58.4977C6.04075 50.529 16.4828 45.7074 16.4827 40.9983Z" fill="url(#paint1_linear_2460_7988)"/>
<defs>
<linearGradient id="paint0_linear_2460_7988" x1="34.625" y1="40.0063" x2="93.8953" y2="40.0063" gradientUnits="userSpaceOnUse">
<stop stop-color="white"/>
<stop offset="0.379808" stop-color="#B9539E"/>
<stop offset="1" stop-color="#952A77"/>
</linearGradient>
<linearGradient id="paint1_linear_2460_7988" x1="65.4605" y1="42.4217" x2="-5.72189" y2="42.3445" gradientUnits="userSpaceOnUse">
<stop stop-color="#651953"/>
<stop offset="0.5" stop-color="#F7374F"/>
<stop offset="1" stop-color="#F495B4"/>
</linearGradient>
</defs>
</svg>
