<svg width="26" height="26" viewBox="0 0 26 26" fill="none" xmlns="http://www.w3.org/2000/svg">
<path d="M0 19.5C0 23.0822 2.91778 26 6.5 26H19.5C23.0822 26 26 23.0822 26 19.5V7.94444H0V19.5ZM9.38889 13C9.38889 12.7472 9.52611 12.5089 9.74278 12.3789C9.96667 12.2489 10.2411 12.2417 10.465 12.3717L16.965 15.9828C17.1889 16.1056 17.3333 16.3511 17.3333 16.6111C17.3333 16.8711 17.1889 17.1167 16.965 17.2394L10.465 20.8506C10.3494 20.9156 10.2339 20.9444 10.1111 20.9444C9.98111 20.9444 9.85833 20.9083 9.74278 20.8433C9.52611 20.7133 9.38889 20.475 9.38889 20.2222V13ZM26 6.5C26 2.91778 23.0822 0 19.5 0H15.5494L19.8828 6.5H26ZM18.1567 6.5L13.8161 0H6.5C6.38444 0 6.27611 1.65465e-07 6.16778 0.00722239L10.4939 6.5H18.1567ZM4.62222 0.281667C1.95 1.08333 0 3.56778 0 6.5H8.76778L4.62222 0.281667Z" fill="white"/>
</svg>
