<svg width="49" height="49" viewBox="0 0 49 49" fill="none" xmlns="http://www.w3.org/2000/svg">
<path d="M0.483765 16.2832V36.4669C0.483765 43.1275 5.93337 48.5771 12.594 48.5771H36.8145C43.4751 48.5771 48.9247 43.1275 48.9247 36.4669V16.2832H0.483765ZM36.8145 12.2465H48.9247C48.9247 5.58583 43.4751 0.13623 36.8145 0.13623H30.7593L36.8145 12.2465ZM22.6859 12.2465H32.7777L26.7226 0.13623H16.6307L22.6859 12.2465ZM0.483765 12.2465H18.6491L12.594 0.13623C5.93337 0.13623 0.483765 5.58583 0.483765 12.2465ZM20.6675 38.4853C19.6583 38.4853 18.6491 37.4761 18.6491 36.4669V24.3567C18.6491 23.5493 19.0528 22.9438 19.6583 22.5402C20.2638 22.1365 21.0712 22.1365 21.6767 22.5402L31.7685 28.5953C32.374 28.9989 32.7777 29.6045 32.7777 30.4118C32.7777 31.2192 32.374 31.8247 31.7685 32.2283L21.6767 38.2835C21.4748 38.4853 21.0712 38.4853 20.6675 38.4853Z" fill="url(#paint0_linear_2513_25)"/>
<defs>
<linearGradient id="paint0_linear_2513_25" x1="4.66312" y1="-36.1471" x2="54.0811" y2="-32.901" gradientUnits="userSpaceOnUse">
<stop stop-color="#FF405E"/>
<stop offset="1" stop-color="#B8509C"/>
</linearGradient>
</defs>
</svg>
