<svg width="10" height="8" viewBox="0 0 10 8" fill="none" xmlns="http://www.w3.org/2000/svg">
<path d="M3.59358 7.65464C3.54919 7.6993 3.4964 7.73473 3.43825 7.75891C3.38011 7.78309 3.31776 7.79554 3.25479 7.79554C3.19182 7.79554 3.12947 7.78309 3.07133 7.75891C3.01319 7.73473 2.9604 7.6993 2.916 7.65464L0.210454 4.94862C0.0757002 4.81382 0 4.63103 0 4.44043C0 4.24983 0.0757002 4.06703 0.210454 3.93224L0.549246 3.59345C0.68404 3.45869 0.866836 3.38299 1.05743 3.38299C1.24803 3.38299 1.43083 3.45869 1.56562 3.59345L3.25479 5.28262L7.81914 0.718266C7.95394 0.583513 8.13673 0.507813 8.32733 0.507812C8.51793 0.507812 8.70073 0.583513 8.83552 0.718266L9.17431 1.05706C9.30907 1.19185 9.38477 1.37465 9.38477 1.56525C9.38477 1.75585 9.30907 1.93864 9.17431 2.07343L3.59358 7.65464Z" fill="white"/>
</svg>
