<svg width="12" height="13" viewBox="0 0 12 13" fill="none" xmlns="http://www.w3.org/2000/svg">
<path d="M11.9741 12.2701V8.05517C11.9741 5.98366 11.5282 4.40125 9.11139 4.40125C7.94616 4.40125 7.16935 5.03422 6.85287 5.63841H6.82409V4.58826H4.5368V12.2701H6.92479V8.45797C6.92479 7.45098 7.1118 6.48715 8.34896 6.48715C9.57173 6.48715 9.58611 7.62361 9.58611 8.51551V12.2557H11.9741V12.2701ZM0.65271 4.58826H3.0407V12.2701H0.65271V4.58826ZM1.84671 0.761719C1.08428 0.761719 0.465698 1.3803 0.465698 2.14273C0.465698 2.90516 1.08428 3.53812 1.84671 3.53812C2.60914 3.53812 3.22772 2.90516 3.22772 2.14273C3.22772 1.3803 2.60914 0.761719 1.84671 0.761719Z" fill="#F44166"/>
</svg>
