<svg width="17" height="17" viewBox="0 0 17 17" fill="none" xmlns="http://www.w3.org/2000/svg">
<path d="M2.37341 2.42521C-0.80831 5.64163 -0.791045 10.8464 2.42521 14.0282C5.64146 17.2099 10.8464 17.1926 14.0282 13.9764C17.2099 10.7601 17.1926 5.55514 13.9764 2.37341C10.7601 -0.80831 5.55514 -0.791045 2.37341 2.42521ZM12.1953 6.62728L7.73395 11.1403C7.35344 11.5208 6.73087 11.5208 6.35053 11.1403L6.17771 10.9676L5.6589 10.4487L4.20641 9.01344C3.8259 8.6331 3.8259 8.01053 4.20641 7.63019C4.58693 7.24985 5.20932 7.24967 5.58967 7.63019L7.04215 9.06541L10.8119 5.26112C11.1923 4.88078 11.8148 4.88078 12.1952 5.26112C12.5757 5.62437 12.5759 6.24694 12.1953 6.62728Z" fill="#F84063"/>
</svg>
