<svg width="15" height="20" viewBox="0 0 15 20" fill="none" xmlns="http://www.w3.org/2000/svg">
<path d="M8.0093 0.130371C4.18292 0.130371 0.942505 3.44736 0.942505 7.37679C0.942505 11.4915 4.6983 15.6994 7.22471 18.6569C7.23434 18.6687 7.64269 19.1304 8.1458 19.1304H8.19044C8.69356 19.1304 9.09898 18.6687 9.10917 18.6569C11.4801 15.8826 14.9425 11.3083 14.9425 7.37679C14.9425 3.44736 12.4149 0.130371 8.0093 0.130371ZM8.24321 17.8603C8.2228 17.8811 8.19303 17.9043 8.16678 17.9236C8.13994 17.9049 8.11078 17.8811 8.08921 17.8604L7.78411 17.5032C5.38896 14.7063 2.10917 10.8764 2.10917 7.37679C2.10917 4.09246 4.81117 1.31757 8.0093 1.31757C11.9929 1.31757 13.7758 4.36054 13.7758 7.37679C13.7758 10.0335 11.9141 13.561 8.24321 17.8603ZM7.9629 3.72582C6.03003 3.72582 4.4629 5.32093 4.4629 7.28832C4.4629 9.25571 6.03003 10.8508 7.9629 10.8508C9.89578 10.8508 11.4629 9.25571 11.4629 7.28832C11.4629 5.32093 9.89578 3.72582 7.9629 3.72582ZM7.9629 9.66332C6.67636 9.66332 5.60272 8.57201 5.60272 7.2622C5.60272 5.95268 6.64951 4.8872 7.93605 4.8872C9.22347 4.8872 10.2694 5.95268 10.2694 7.2622C10.27 8.57201 9.25032 9.66332 7.9629 9.66332Z" fill="black"/>
</svg>
