<svg width="85" height="76" viewBox="0 0 85 76" fill="none" xmlns="http://www.w3.org/2000/svg">
<path d="M70.7733 44.5606H63.4924V60.0647C63.4924 60.7214 63.4352 61.4495 63.321 62.249C63.2068 63.0485 62.9213 63.8051 62.4645 64.5189C62.0076 65.2042 61.3081 65.7895 60.3658 66.2749C59.4236 66.7603 58.1244 67.003 56.4684 67.003H38.1375C36.767 67.003 35.6535 66.8745 34.7969 66.6175C33.9403 66.3606 33.2693 65.9894 32.7839 65.504C32.2985 65.0186 31.9702 64.4047 31.7988 63.6623C31.6275 62.92 31.5419 62.0491 31.5419 61.0498V11.4965C31.5419 10.4972 31.6275 9.62634 31.7988 8.88397C31.9702 8.1416 32.2985 7.52772 32.7839 7.04232C33.2693 6.52838 33.9403 6.14291 34.7969 5.88594C35.6535 5.62897 36.767 5.50048 38.1375 5.50048H57.2393C58.8954 5.50048 60.1517 5.74318 61.0083 6.22857C61.8934 6.71397 62.5073 7.32785 62.8499 8.07022C63.2211 8.78404 63.421 9.55496 63.4495 10.383C63.4781 11.1825 63.4924 11.9248 63.4924 12.6101V38.3932H70.7733V7.51344C70.7733 7.02805 70.9018 6.57121 71.1588 6.14291C71.4157 5.71462 71.9154 5.50048 72.6578 5.50048H77.112C77.369 5.50048 77.6117 5.51476 77.8401 5.54331C78.0971 5.57186 78.3112 5.65752 78.4825 5.80028C78.6824 5.91449 78.8252 6.11436 78.9108 6.39989C79.025 6.65686 79.0821 7.02805 79.0821 7.51344V38.3932H83.1937C83.7933 38.3932 84.0931 38.693 84.0931 39.2926V43.6183C84.0931 44.2465 83.7933 44.5606 83.1937 44.5606H79.0821V64.99C79.0821 65.4754 79.025 65.8609 78.9108 66.1464C78.8252 66.4034 78.6824 66.6033 78.4825 66.746C78.3112 66.8602 78.0971 66.9316 77.8401 66.9602C77.6117 66.9887 77.369 67.003 77.112 67.003H72.5293C71.7869 67.003 71.3015 66.7889 71.0731 66.3606C70.8732 65.9323 70.7733 65.4754 70.7733 64.99V44.5606Z" fill="url(#paint0_linear_2273_2971)"/>
<path d="M15.4562 37.131C14.1713 38.0947 6.13998 43.5544 1.64238 45.16C-0.606461 38.7367 10.7076 37.131 14.1713 31.9926C19.1363 23.3173 20.4892 20.1096 21.2388 14.3286C20.9176 8.65477 23.5518 -1.8579 36.6589 1.48218C53.0213 5.65182 53.6834 9.18095 54.6452 14.3085L54.649 14.3286C55.2913 19.7885 52.7213 24.6059 54.649 29.102C56.8976 31.9926 59.4676 32.6349 61.3953 36.4887C64.3326 42.361 60.0032 49.3352 57.219 52.2256L48.2238 44.5179L47.26 44.1967C48.5449 48.3721 55.2913 50.9411 55.6127 60.2545C55.8012 65.7145 51.4363 69.5684 48.8663 69.2473C50.4725 62.5029 44.628 51.5834 38.4433 44.1965C34.41 39.3791 35.0525 34.5619 35.3737 31.0291C37.5154 31.2432 39.2288 33.2773 43.405 32.9561C46.9388 32.3138 49.8301 21.3943 48.5451 13.3653C48.2236 12.0808 45.975 10.1537 44.3689 9.83236C43.405 18.825 32.8037 16.5769 32.1614 27.4961C29.27 16.898 34.7312 18.825 38.2652 12.7227C23.8088 19.4671 29.2701 23.9633 33.4464 39.3791C36.7874 51.7117 33.9818 64.8578 32.1614 69.8894L30.3241 72.7405L29.3149 74.0323L28.9112 74.6379L28.2249 75.1223L27.135 75.6471L25.8836 75.8086L24.6321 75.7279L23.3807 75.4857L20.9586 74.759L18.4558 73.8708L17.3255 73.346L16.3163 72.7405L15.2263 71.6101L14.2575 70.3182L13.8134 69.6319L13.5288 68.9259C13.2074 67.6415 12.8861 64.751 13.5288 63.145C13.8499 60.8971 21.5599 50.6199 21.8813 44.1965C15.4561 55.4374 13.2074 56.722 11.6013 60.2545C10.3163 63.145 9.88792 66.4637 10.3163 68.9259C10.8951 72.2536 8.30908 73.8708 2.21026 65.9408C-1.1475 58.0603 2.6491 54.2526 3.30665 52.6467C6.198 45.5813 15.4563 41.3063 15.4562 37.131Z" fill="url(#paint1_linear_2273_2971)"/>
<defs>
<linearGradient id="paint0_linear_2273_2971" x1="31.5419" y1="36.2517" x2="84.0931" y2="36.2517" gradientUnits="userSpaceOnUse">
<stop stop-color="white"/>
<stop offset="0.379808" stop-color="#B9539E"/>
<stop offset="1" stop-color="#952A77"/>
</linearGradient>
<linearGradient id="paint1_linear_2273_2971" x1="58.8817" y1="38.3931" x2="-4.2312" y2="38.3246" gradientUnits="userSpaceOnUse">
<stop stop-color="#651953"/>
<stop offset="0.5" stop-color="#F7374F"/>
<stop offset="1" stop-color="#F495B4"/>
</linearGradient>
</defs>
</svg>
