<svg width="18" height="14" viewBox="0 0 18 14" fill="none" xmlns="http://www.w3.org/2000/svg">
<path d="M16.88 0.130371H2.005C1.72321 0.130371 1.45296 0.244508 1.2537 0.447672C1.05445 0.650836 0.942505 0.926387 0.942505 1.2137V12.047C0.942505 12.3344 1.05445 12.6099 1.2537 12.8131C1.45296 13.0162 1.72321 13.1304 2.005 13.1304H16.88C17.1618 13.1304 17.432 13.0162 17.6313 12.8131C17.8306 12.6099 17.9425 12.3344 17.9425 12.047V1.2137C17.9425 0.926387 17.8306 0.650836 17.6313 0.447672C17.432 0.244508 17.1618 0.130371 16.88 0.130371ZM16.0619 12.047H2.88688L6.60563 8.12537L5.84063 7.37246L2.005 11.4187V2.03704L8.60844 8.73745C8.80752 8.93923 9.07681 9.05248 9.3575 9.05248C9.6382 9.05248 9.90749 8.93923 10.1066 8.73745L16.88 1.86912V11.3483L12.97 7.36162L12.2209 8.12537L16.0619 12.047ZM2.70094 1.2137H16.0194L9.3575 7.96829L2.70094 1.2137Z" fill="black"/>
</svg>
