<svg width="28" height="22" viewBox="0 0 28 22" fill="none" xmlns="http://www.w3.org/2000/svg">
<path d="M16.3833 13.7784C15.6932 14.2384 14.8917 14.4816 14.0653 14.4816C13.239 14.4816 12.4375 14.2384 11.7475 13.7784L0.382179 6.2013C0.319439 6.15935 0.257859 6.11569 0.19751 6.07037L0.19751 18.4863C0.19751 19.9098 1.35271 21.0395 2.75076 21.0395H25.3799C26.8034 21.0395 27.9331 19.8843 27.9331 18.4863V6.07031C27.8727 6.11576 27.811 6.15951 27.7481 6.20152L16.3833 13.7784Z" fill="url(#paint0_linear_2479_26)"/>
<path d="M1.28364 4.84905L12.6489 12.4262C13.0792 12.713 13.5722 12.8564 14.0653 12.8564C14.5584 12.8564 15.0515 12.713 15.4818 12.4262L26.8471 4.84905C27.5272 4.39591 27.9332 3.63752 27.9332 2.81899C27.9332 1.41156 26.7882 0.266602 25.3808 0.266602H2.7499C1.34253 0.266656 0.197511 1.41162 0.197511 2.82034C0.197089 3.22186 0.296049 3.61725 0.485564 3.97123C0.675079 4.32521 0.949257 4.62678 1.28364 4.84905Z" fill="url(#paint1_linear_2479_26)"/>
<defs>
<linearGradient id="paint0_linear_2479_26" x1="14.0653" y1="6.07031" x2="14.0653" y2="21.0395" gradientUnits="userSpaceOnUse">
<stop stop-color="#C14D92"/>
<stop offset="1" stop-color="#F84062"/>
</linearGradient>
<linearGradient id="paint1_linear_2479_26" x1="14.0653" y1="0.266602" x2="14.0653" y2="12.8564" gradientUnits="userSpaceOnUse">
<stop stop-color="#C14D92"/>
<stop offset="1" stop-color="#F84062"/>
</linearGradient>
</defs>
</svg>
