<svg width="27" height="27" viewBox="0 0 27 27" fill="none" xmlns="http://www.w3.org/2000/svg">
<path d="M13.0244 5.78874C11.4281 5.78874 10.1302 4.49082 10.1302 2.89455C10.1302 1.29827 11.4281 0 13.0244 0C14.62 0 15.9186 1.29793 15.9186 2.8942C15.9186 4.49047 14.62 5.78874 13.0244 5.78874ZM13.0244 26.0488C11.4281 26.0488 10.1302 24.7502 10.1302 23.1546C10.1302 21.5591 11.4281 20.2604 13.0244 20.2604C14.62 20.2604 15.9186 21.5591 15.9186 23.1546C15.9186 24.7502 14.62 26.0488 13.0244 26.0488ZM13.0244 15.9186C11.4281 15.9186 10.1302 14.62 10.1302 13.0244C10.1302 11.4281 11.4281 10.1302 13.0244 10.1302C14.62 10.1302 15.9186 11.4281 15.9186 13.0244C15.9186 14.62 14.62 15.9186 13.0244 15.9186ZM13.0244 5.78874C11.4281 5.78874 10.1302 4.49082 10.1302 2.89455C10.1302 1.29827 11.4281 0 13.0244 0C14.62 0 15.9186 1.29793 15.9186 2.8942C15.9186 4.49047 14.62 5.78874 13.0244 5.78874ZM2.8942 5.78874C1.29793 5.78874 0 4.49082 0 2.89455C0 1.29827 1.29793 0.000347458 2.8942 0.000347458C4.49047 0.000347458 5.7884 1.29827 5.7884 2.89455C5.7884 4.49082 4.49047 5.78874 2.8942 5.78874ZM2.8942 5.78874C1.29793 5.78874 0 4.49082 0 2.89455C0 1.29827 1.29793 0.000347458 2.8942 0.000347458C4.49047 0.000347458 5.7884 1.29827 5.7884 2.89455C5.7884 4.49082 4.49047 5.78874 2.8942 5.78874ZM13.0244 26.0488C11.4281 26.0488 10.1302 24.7502 10.1302 23.1546C10.1302 21.5591 11.4281 20.2604 13.0244 20.2604C14.62 20.2604 15.9186 21.5591 15.9186 23.1546C15.9186 24.7502 14.62 26.0488 13.0244 26.0488ZM5.78874 13.0244C5.78874 11.4281 4.49082 10.1302 2.89455 10.1302C1.29827 10.1302 0 11.4281 0 13.0244C0 14.62 1.29793 15.9186 2.8942 15.9186C4.49047 15.9186 5.78874 14.62 5.78874 13.0244ZM26.0488 13.0244C26.0488 11.4281 24.7502 10.1302 23.1546 10.1302C21.5591 10.1302 20.2604 11.4281 20.2604 13.0244C20.2604 14.62 21.5591 15.9186 23.1546 15.9186C24.7502 15.9186 26.0488 14.62 26.0488 13.0244ZM5.78874 13.0244C5.78874 11.4281 4.49082 10.1302 2.89455 10.1302C1.29827 10.1302 0 11.4281 0 13.0244C0 14.62 1.29793 15.9186 2.8942 15.9186C4.49047 15.9186 5.78874 14.62 5.78874 13.0244ZM5.78874 23.1546C5.78874 21.5591 4.49082 20.2604 2.89455 20.2604C1.29827 20.2604 0 21.5591 0 23.1546C0 24.7502 1.29793 26.0488 2.8942 26.0488C4.49047 26.0488 5.78874 24.7502 5.78874 23.1546ZM5.78874 23.1546C5.78874 21.5591 4.49082 20.2604 2.89455 20.2604C1.29827 20.2604 0 21.5591 0 23.1546C0 24.7502 1.29793 26.0488 2.8942 26.0488C4.49047 26.0488 5.78874 24.7502 5.78874 23.1546ZM23.1546 5.78874C21.5591 5.78874 20.2604 4.49082 20.2604 2.89455C20.2604 1.29827 21.5591 0.000347458 23.1546 0.000347458C24.7502 0.000347458 26.0488 1.29827 26.0488 2.89455C26.0488 4.49082 24.7502 5.78874 23.1546 5.78874ZM23.1546 5.78874C21.5591 5.78874 20.2604 4.49082 20.2604 2.89455C20.2604 1.29827 21.5591 0.000347458 23.1546 0.000347458C24.7502 0.000347458 26.0488 1.29827 26.0488 2.89455C26.0488 4.49082 24.7502 5.78874 23.1546 5.78874ZM26.0488 23.1546C26.0488 21.5591 24.7502 20.2604 23.1546 20.2604C21.5591 20.2604 20.2604 21.5591 20.2604 23.1546C20.2604 24.7502 21.5591 26.0488 23.1546 26.0488C24.7502 26.0488 26.0488 24.7502 26.0488 23.1546ZM26.0488 23.1546C26.0488 21.5591 24.7502 20.2604 23.1546 20.2604C21.5591 20.2604 20.2604 21.5591 20.2604 23.1546C20.2604 24.7502 21.5591 26.0488 23.1546 26.0488C24.7502 26.0488 26.0488 24.7502 26.0488 23.1546ZM26.0488 13.0244C26.0488 11.4281 24.7502 10.1302 23.1546 10.1302C21.5591 10.1302 20.2604 11.4281 20.2604 13.0244C20.2604 14.62 21.5591 15.9186 23.1546 15.9186C24.7502 15.9186 26.0488 14.62 26.0488 13.0244ZM13.0244 15.9186C11.4281 15.9186 10.1302 14.62 10.1302 13.0244C10.1302 11.4281 11.4281 10.1302 13.0244 10.1302C14.62 10.1302 15.9186 11.4281 15.9186 13.0244C15.9186 14.62 14.62 15.9186 13.0244 15.9186Z" fill="white"/>
</svg>
