<svg width="12" height="12" viewBox="0 0 12 12" fill="none" xmlns="http://www.w3.org/2000/svg">
<path d="M5.94711 11.9136C6.11607 11.9145 6.2815 11.8652 6.42231 11.7718C6.56311 11.6784 6.67291 11.5452 6.7377 11.3891C6.8025 11.2331 6.81935 11.0612 6.78612 10.8956C6.75288 10.7299 6.67106 10.5779 6.55109 10.4589L2.04248 5.9588L6.55109 1.4587C6.69045 1.29596 6.76328 1.08663 6.75501 0.872535C6.74674 0.658439 6.65798 0.455348 6.50648 0.303846C6.35498 0.152345 6.15189 0.0635915 5.93779 0.0553219C5.7237 0.0470523 5.51437 0.119876 5.35163 0.25924L0.247546 5.36332C0.0891056 5.52271 0.000174046 5.73832 0.000174046 5.96305C0.000174046 6.18779 0.0891056 6.4034 0.247546 6.56278L5.35163 11.6669C5.51008 11.824 5.72394 11.9126 5.94711 11.9136Z" fill="black"/>
<path d="M11.0506 11.913C11.2196 11.914 11.385 11.8646 11.5258 11.7712C11.6666 11.6778 11.7764 11.5446 11.8412 11.3886C11.906 11.2325 11.9229 11.0607 11.8896 10.895C11.8564 10.7294 11.7746 10.5773 11.6546 10.4583L7.146 5.95825L11.6546 1.45814C11.8148 1.29796 11.9048 1.0807 11.9048 0.854162C11.9048 0.627624 11.8148 0.410364 11.6546 0.250178C11.4944 0.0899918 11.2772 1.68784e-09 11.0506 0C10.8241 -1.68784e-09 10.6068 0.0899918 10.4466 0.250178L5.34255 5.35426C5.18411 5.51365 5.09518 5.72925 5.09518 5.95399C5.09518 6.17873 5.18411 6.39434 5.34255 6.55372L10.4466 11.6578C10.5254 11.7382 10.6194 11.8021 10.7231 11.8459C10.8267 11.8897 10.9381 11.9125 11.0506 11.913Z" fill="black"/>
</svg>
