<svg width="12" height="12" viewBox="0 0 12 12" fill="none" xmlns="http://www.w3.org/2000/svg">
<path d="M5.9611 11.9136C5.79213 11.9145 5.6267 11.8652 5.4859 11.7718C5.34509 11.6784 5.23529 11.5452 5.1705 11.3891C5.10571 11.2331 5.08885 11.0612 5.12209 10.8956C5.15532 10.7299 5.23714 10.5779 5.35711 10.4589L9.86572 5.9588L5.35711 1.4587C5.21775 1.29596 5.14493 1.08663 5.1532 0.872535C5.16147 0.658439 5.25022 0.455348 5.40172 0.303846C5.55322 0.152345 5.75631 0.0635915 5.97041 0.0553219C6.1845 0.0470523 6.39384 0.119876 6.55657 0.25924L11.6607 5.36332C11.8191 5.52271 11.908 5.73832 11.908 5.96305C11.908 6.18779 11.8191 6.4034 11.6607 6.56278L6.55657 11.6669C6.39812 11.824 6.18426 11.9126 5.9611 11.9136Z" fill="black"/>
<path d="M0.857581 11.913C0.688615 11.914 0.523184 11.8646 0.38238 11.7712C0.241575 11.6778 0.131777 11.5446 0.0669833 11.3886C0.00218971 11.2325 -0.0146635 11.0607 0.0185723 10.895C0.0518081 10.7294 0.133627 10.5773 0.253598 10.4583L4.76221 5.95825L0.253598 1.45814C0.0934115 1.29796 0.00341972 1.0807 0.00341972 0.854162C0.00341972 0.627624 0.0934115 0.410364 0.253598 0.250178C0.413784 0.0899918 0.631043 1.68784e-09 0.857581 0C1.08412 -1.68784e-09 1.30138 0.0899918 1.46156 0.250178L6.56565 5.35426C6.72409 5.51365 6.81302 5.72925 6.81302 5.95399C6.81302 6.17873 6.72409 6.39434 6.56565 6.55372L1.46156 11.6578C1.38278 11.7382 1.28883 11.8021 1.18515 11.8459C1.08147 11.8897 0.970132 11.9125 0.857581 11.913Z" fill="black"/>
</svg>
