<svg width="19" height="19" viewBox="0 0 19 19" fill="none" xmlns="http://www.w3.org/2000/svg">
<path d="M16.8663 18.5166H16.7487C3.14983 17.7343 1.219 6.25583 0.949097 2.75276C0.927349 2.48039 0.959539 2.2064 1.04382 1.9465C1.1281 1.6866 1.26282 1.44589 1.44026 1.23816C1.61769 1.03043 1.83436 0.85977 2.07784 0.735952C2.32132 0.612134 2.58683 0.537594 2.85916 0.516602H6.67237C6.94958 0.516334 7.22048 0.59934 7.44999 0.754868C7.67949 0.910396 7.85703 1.13128 7.95959 1.38891L9.01151 3.97814C9.11279 4.22983 9.13793 4.50573 9.08379 4.77159C9.02966 5.03744 8.89864 5.28153 8.70701 5.47353L7.23294 6.96199C7.46319 8.27097 8.08982 9.4776 9.02805 10.4186C9.96628 11.3597 11.1708 11.9897 12.4787 12.2235L13.9805 10.7351C14.1753 10.5455 14.4216 10.4175 14.6886 10.367C14.9557 10.3165 15.2317 10.3458 15.4822 10.4512L18.0912 11.4966C18.3449 11.6024 18.5613 11.7814 18.7129 12.0108C18.8645 12.2401 18.9444 12.5094 18.9425 12.7843V16.4397C18.9425 16.9905 18.7237 17.5188 18.3344 17.9083C17.945 18.2978 17.4169 18.5166 16.8663 18.5166ZM3.02526 1.90122C2.84171 1.90122 2.66569 1.97416 2.5359 2.10399C2.40611 2.23382 2.3332 2.40991 2.3332 2.59353V2.64891C2.65155 6.74737 4.6931 16.4397 16.8248 17.132C16.9157 17.1376 17.0068 17.1252 17.093 17.0955C17.1791 17.0658 17.2585 17.0194 17.3266 16.959C17.3948 16.8985 17.4504 16.8252 17.4901 16.7432C17.5299 16.6612 17.5531 16.5722 17.5584 16.4812V12.7843L14.9493 11.7389L12.9631 13.712L12.6309 13.6704C6.61009 12.9158 5.79347 6.89276 5.79347 6.83045L5.75194 6.49814L7.71737 4.51122L6.67929 1.90122H3.02526Z" fill="black"/>
</svg>
