<svg width="62" height="62" viewBox="0 0 62 62" fill="none" xmlns="http://www.w3.org/2000/svg">
<path d="M31.0602 47.6315C31.0516 41.4587 34.4791 35.7942 39.9517 32.9374C45.4237 30.0811 52.0307 30.5072 57.0906 34.0427C59.3927 21.6428 53.3554 9.1878 42.1951 3.31395C31.0348 -2.56046 17.35 -0.485723 8.43214 8.43214C-0.485723 17.35 -2.56046 31.0348 3.31395 42.1951C9.1878 53.3554 21.6428 59.3927 34.0427 57.0904C32.0997 54.3191 31.0582 51.0161 31.0602 47.6315ZM32.7568 29.6317L29.6319 32.7556C29.2003 33.1871 28.5007 33.1871 28.0697 32.7556L25.2678 29.9554H14.489V27.7459H25.2679L27.746 25.2689V12.2793H29.9556V25.2689L32.7568 28.0695C33.1883 28.5006 33.1883 29.2002 32.7568 29.6317ZM29.9556 48.7363V50.9458H27.746V48.7363H29.9556ZM14.0073 42.1309L15.5705 43.6932L14.0084 45.2559L12.4452 43.6942L14.0073 42.1309ZM12.4449 14.0072L14.0081 12.4449L15.5704 14.0081L14.0072 15.5704L12.4449 14.0072ZM27.7459 8.96505V6.75554H29.9554V8.96505H27.7459ZM43.6942 15.5704L42.1309 14.0083L43.6932 12.445L45.2559 14.0072L43.6942 15.5704ZM50.9458 29.9554H48.7363V27.7459H50.9458V29.9554ZM28.8507 55.3648C14.2073 55.3648 2.33651 43.4942 2.33651 28.8507C2.33651 14.2073 14.2073 2.33651 28.8507 2.33651C43.4942 2.33651 55.3648 14.2073 55.3648 28.8507C55.3648 29.2369 55.3557 29.6237 55.3405 30.0029L53.131 29.9079C53.1471 29.5573 53.1553 29.204 53.1553 28.8507C53.1553 15.4275 42.2734 4.54603 28.8507 4.54603C15.4275 4.54603 4.54603 15.4275 4.54603 28.8507C4.54603 42.2734 15.4275 53.1553 28.8507 53.1553C29.204 53.1553 29.5563 53.1471 29.9068 53.1321L30.004 55.3416C29.6215 55.3568 29.2369 55.3648 28.8507 55.3648ZM8.96505 27.7459V29.9554H6.75554V27.7459H8.96505Z" fill="url(#paint0_linear_3248_11101)"/>
<path d="M27.2891 28.8517L28.8512 27.2891L30.4139 28.8517L28.8512 30.414L27.2891 28.8517ZM47.632 33.2708C39.7003 33.2708 33.2702 39.7009 33.2702 47.6326C33.2702 55.5643 39.7003 61.9944 47.632 61.9944C55.5638 61.9944 61.9939 55.5645 61.9939 47.6326C61.9848 39.7046 55.56 33.2799 47.632 33.2708ZM39.8987 48.7373H37.6892V46.5278H39.8987V48.7373ZM46.5273 46.5278H48.7368C51.1772 46.5278 53.1558 48.5059 53.1558 50.9469C53.1558 53.3873 51.1772 55.3659 48.7368 55.3659V57.5754H46.5273V55.3659C44.0863 55.3659 42.1083 53.3873 42.1083 50.9469H44.3178C44.3178 52.1671 45.3065 53.1564 46.5273 53.1564H48.7368C49.957 53.1564 50.9463 52.1671 50.9463 50.9469C50.9463 49.7261 49.957 48.7373 48.7368 48.7373H46.5273C44.0863 48.7373 42.1083 46.7587 42.1083 44.3183C42.1083 41.8774 44.0863 39.8993 46.5273 39.8993V37.6898H48.7368V39.8993C51.1772 39.8993 53.1558 41.8774 53.1558 44.3183H50.9463C50.9463 43.0976 49.957 42.1088 48.7368 42.1088H46.5273C45.3065 42.1088 44.3178 43.0976 44.3178 44.3183C44.3178 45.5385 45.3065 46.5278 46.5273 46.5278ZM57.5748 48.7373H55.3653V46.5278H57.5748V48.7373Z" fill="url(#paint1_linear_3248_11101)"/>
<defs>
<linearGradient id="paint0_linear_3248_11101" x1="4.96751" y1="-43.1256" x2="63.7049" y2="-39.2675" gradientUnits="userSpaceOnUse">
<stop stop-color="#FF405E"/>
<stop offset="1" stop-color="#B8509C"/>
</linearGradient>
<linearGradient id="paint1_linear_3248_11101" x1="30.2833" y1="1.294" x2="65.6881" y2="3.61952" gradientUnits="userSpaceOnUse">
<stop stop-color="#FF405E"/>
<stop offset="1" stop-color="#B8509C"/>
</linearGradient>
</defs>
</svg>
