<svg width="45" height="60" viewBox="0 0 45 60" fill="none" xmlns="http://www.w3.org/2000/svg">
<path d="M11.7562 35.3839C14.1044 35.7366 16.9708 35.1964 20.1017 35.0091C20.686 35.1413 21.2703 35.2296 21.8767 35.2296C22.494 35.2296 23.1004 35.1413 23.7067 34.9981C31.8538 35.395 38.204 37.6991 38.204 21.1182C38.204 9.86222 30.8947 0.7229 21.8767 0.7229C12.8586 0.7229 5.54937 9.86222 5.54937 21.1182C5.54937 30.1694 7.28022 33.6862 10.0915 34.9099C10.6096 35.1524 11.1719 35.2957 11.7562 35.3839ZM9.15438 14.7571C10.8632 17.1274 15.295 16.6202 19.1205 13.6216C20.0907 12.8609 20.9396 11.9899 21.6231 11.108C21.7113 11.119 21.7995 11.13 21.8877 11.1521C22.2625 11.2182 22.6043 11.3505 22.9901 11.4718C23.332 11.6372 23.7067 11.7695 24.0375 11.9789C24.3793 12.1553 24.6879 12.3979 24.9966 12.6073C25.2722 12.8499 25.5809 13.0814 25.8124 13.346C26.0548 13.5885 26.2865 13.8531 26.4627 14.1067C26.6612 14.3492 26.8046 14.6028 26.9478 14.8232C27.091 15.0437 27.2123 15.2422 27.2786 15.4186C27.4439 15.7603 27.543 15.9588 27.543 15.9588C27.543 15.9588 27.51 15.7493 27.4439 15.3634C27.4219 15.165 27.3668 14.9445 27.3006 14.6799C27.2344 14.4153 27.1572 14.1067 27.025 13.798C26.9148 13.4783 26.7604 13.1475 26.584 12.7947C26.4186 12.4419 26.1761 12.1002 25.9445 11.7254C25.6689 11.3836 25.4153 11.0088 25.0846 10.678C24.7759 10.3252 24.4011 10.0276 24.0372 9.70787C23.6955 9.46533 23.3318 9.20075 22.9459 8.99128C23.1113 8.64952 23.2435 8.29674 23.3537 7.966C24.7208 8.58337 26.121 9.36611 27.2344 10.4796C31.3246 14.5697 29.7149 19.3212 32.868 16.1793C33.3641 15.6832 33.7719 15.165 34.0917 14.6469C34.202 14.6469 34.3122 14.6358 34.4004 14.6579C34.8303 14.7681 35.106 15.0989 35.2603 15.3634C35.6903 16.08 35.7896 17.1163 35.5249 18.1526C35.128 19.6961 34.1138 20.6111 33.2979 20.7103L32.6365 20.7985L32.4602 21.449C30.8947 27.1266 26.6723 33.168 21.8987 33.168C17.1251 33.168 12.9137 27.1266 11.3372 21.449L11.1608 20.7985L10.4994 20.7103C9.69458 20.6001 8.6693 19.6851 8.27242 18.1526C8.00783 17.1163 8.10705 16.08 8.53701 15.3634C8.63623 15.165 8.85672 14.9114 9.15438 14.7571ZM34.1469 36.8723C32.8681 39.055 31.3798 40.8962 29.4174 41.9103C25.3604 43.9829 22.3398 45.6807 22.3398 45.6807L22.3287 45.6697V45.6365L22.2956 45.6586L22.2625 45.6365V45.6697L22.2515 45.6807C22.2515 45.6807 19.2418 44.005 15.1738 41.9103C13.2114 40.8962 11.7341 39.055 10.4443 36.8723C4.43589 39.3196 0.246582 44.92 0.246582 49.8259V59.9905H44.3446V49.8259C44.3446 44.9312 40.1443 39.3197 34.1469 36.8723Z" fill="url(#paint0_linear_2513_37)"/>
<defs>
<linearGradient id="paint0_linear_2513_37" x1="4.05124" y1="-43.6698" x2="49.1252" y2="-41.4669" gradientUnits="userSpaceOnUse">
<stop stop-color="#FF405E"/>
<stop offset="1" stop-color="#B8509C"/>
</linearGradient>
</defs>
</svg>
