<svg width="131" height="98" viewBox="0 0 131 98" fill="none" xmlns="http://www.w3.org/2000/svg">
<g opacity="0.06">
<path d="M31.2628 0.585938C22.9736 0.585938 15.0239 3.87881 9.16259 9.74016C3.30124 15.6015 0.00837708 23.5512 0.00837708 31.8404C0.00837708 44.5922 6.64568 56.9235 16.5505 59.3046C20.3749 60.2252 23.4151 65.1293 22.7616 70.7267C21.8865 78.2164 15.1128 85.7856 1.69612 91.7524C-1.29295 93.0821 -0.0427704 97.5771 3.20201 97.1679C38.1672 92.7923 62.4036 69.9993 62.5173 37.7503C62.5173 15.571 49.4132 0.585938 31.2628 0.585938ZM99.4544 0.585938C91.1652 0.585938 83.2155 3.87881 77.3541 9.74016C71.4928 15.6015 68.1999 23.5512 68.1999 31.8404C68.1999 44.5922 74.8372 56.9235 84.7421 59.3046C88.5665 60.2252 91.6067 65.1293 90.9532 70.7267C90.0781 78.2164 83.3044 85.7856 69.8877 91.7524C66.8986 93.0821 68.1488 97.5771 71.3936 97.1679C106.359 92.7923 130.595 69.9993 130.709 37.7503C130.709 15.571 117.605 0.585938 99.4544 0.585938Z" fill="#F84063"/>
</g>
</svg>
