<svg width="55" height="62" viewBox="0 0 55 62" fill="none" xmlns="http://www.w3.org/2000/svg">
<path fill-rule="evenodd" clip-rule="evenodd" d="M12.772 0C5.71826 0 0 5.71826 0 12.772V49.228C0 56.2817 5.71826 62 12.772 62H24.1625C20.5602 58.1809 18.352 53.0323 18.352 47.368C18.352 35.5889 27.9009 26.04 39.68 26.04C42.1111 26.04 44.4472 26.4467 46.624 27.1959V12.772C46.624 5.71826 40.9057 0 33.852 0H12.772ZM9.052 13.888C9.052 12.0389 10.5509 10.54 12.4 10.54H29.512C31.3611 10.54 32.86 12.0389 32.86 13.888C32.86 15.7371 31.3611 17.236 29.512 17.236H12.4C10.5509 17.236 9.052 15.7371 9.052 13.888ZM12.4 21.7C10.5509 21.7 9.052 23.1989 9.052 25.048C9.052 26.8971 10.5509 28.396 12.4 28.396H17.112C18.9611 28.396 20.46 26.8971 20.46 25.048C20.46 23.1989 18.9611 21.7 17.112 21.7H12.4Z" fill="url(#paint0_linear_3248_11111)"/>
<path fill-rule="evenodd" clip-rule="evenodd" d="M39.6808 61.9984C38.6474 61.9984 37.639 61.8912 36.6663 61.6875C30.0315 60.2978 25.0488 54.414 25.0488 47.3664C25.0488 39.2853 31.5997 32.7344 39.6808 32.7344C42.1938 32.7344 44.5587 33.3679 46.6248 34.4839C51.2027 36.9567 54.3128 41.7983 54.3128 47.3664C54.3128 55.4475 47.7619 61.9984 39.6808 61.9984ZM36.8402 45.0663C35.5328 43.7588 33.4129 43.7588 32.1054 45.0663C30.798 46.3738 30.798 48.4937 32.1054 49.8011L35.8317 53.5273C37.1392 54.8348 39.259 54.8348 40.5666 53.5273L47.7019 46.392C49.0093 45.0845 49.0093 42.9646 47.7019 41.6572C46.3944 40.3497 44.2745 40.3497 42.9671 41.6572L38.1992 46.4252L36.8402 45.0663Z" fill="url(#paint1_linear_3248_11111)"/>
<defs>
<linearGradient id="paint0_linear_3248_11111" x1="4.0226" y1="-46.4393" x2="51.6759" y2="-44.0855" gradientUnits="userSpaceOnUse">
<stop stop-color="#FF405E"/>
<stop offset="1" stop-color="#B8509C"/>
</linearGradient>
<linearGradient id="paint1_linear_3248_11111" x1="27.5737" y1="10.815" x2="57.4279" y2="12.776" gradientUnits="userSpaceOnUse">
<stop stop-color="#FF405E"/>
<stop offset="1" stop-color="#B8509C"/>
</linearGradient>
</defs>
</svg>
