<svg width="12" height="10" viewBox="0 0 12 10" fill="none" xmlns="http://www.w3.org/2000/svg">
<path d="M11.6172 5.88689L8.02691 9.47722C7.85762 9.64073 7.63089 9.7312 7.39555 9.72915C7.1602 9.72711 6.93508 9.63271 6.76866 9.46629C6.60224 9.29987 6.50784 9.07475 6.50579 8.8394C6.50375 8.60406 6.59422 8.37733 6.75772 8.20804L8.81678 6.14898H1.62219C1.38414 6.14898 1.15584 6.05441 0.987506 5.88608C0.819176 5.71775 0.724609 5.48945 0.724609 5.2514C0.724609 5.01334 0.819176 4.78504 0.987506 4.61671C1.15584 4.44838 1.38414 4.35381 1.62219 4.35381H8.81678L6.75862 2.29565C6.67289 2.21285 6.60451 2.11381 6.55747 2.0043C6.51043 1.89479 6.48567 1.77701 6.48463 1.65783C6.4836 1.53865 6.50631 1.42045 6.55144 1.31014C6.59657 1.19983 6.66322 1.09961 6.74749 1.01534C6.83177 0.931061 6.93199 0.864413 7.0423 0.819281C7.15261 0.77415 7.2708 0.75144 7.38998 0.752475C7.50916 0.753511 7.62694 0.778272 7.73645 0.825314C7.84596 0.872355 7.94501 0.940735 8.02781 1.02646L11.6181 4.6168C11.7017 4.70018 11.7681 4.79923 11.8133 4.90828C11.8586 5.01733 11.8818 5.13423 11.8818 5.25229C11.8818 5.37036 11.8586 5.48726 11.8133 5.59631C11.7681 5.70536 11.7017 5.8044 11.6181 5.88778L11.6172 5.88689Z" fill="white"/>
</svg>
