<svg width="6" height="8" viewBox="0 0 6 8" fill="none" xmlns="http://www.w3.org/2000/svg">
<path d="M1.45628 0.146576C1.34574 0.144526 1.2373 0.176884 1.14596 0.239172C1.05462 0.301461 0.9849 0.390599 0.946444 0.494253C0.907988 0.597906 0.9027 0.71095 0.931312 0.81774C0.959924 0.924531 1.02102 1.01979 1.10615 1.09033L4.36402 3.87934L1.10414 6.66835C1.04458 6.71176 0.994672 6.76705 0.957559 6.83072C0.920445 6.89439 0.896933 6.96507 0.888507 7.03829C0.88008 7.1115 0.886922 7.18567 0.9086 7.25611C0.930278 7.32655 0.966322 7.39173 1.01446 7.44754C1.06259 7.50335 1.12177 7.54857 1.18827 7.58036C1.25476 7.61215 1.32712 7.6298 1.40078 7.63222C1.47444 7.63464 1.5478 7.62176 1.61623 7.5944C1.68466 7.56704 1.74668 7.52579 1.79837 7.47325L5.5251 4.28783C5.5837 4.23777 5.63076 4.1756 5.66303 4.1056C5.6953 4.0356 5.71201 3.95944 5.71201 3.88236C5.71201 3.80528 5.6953 3.72912 5.66303 3.65912C5.63076 3.58912 5.5837 3.52695 5.5251 3.47688L1.79837 0.281398C1.70393 0.197322 1.58269 0.149539 1.45628 0.146576Z" fill="#F44166"/>
</svg>
