<svg width="48" height="55" viewBox="0 0 48 55" fill="none" xmlns="http://www.w3.org/2000/svg">
<path d="M0.0609462 10.8043V23.3895C0.0417027 36.7445 8.41262 48.9256 20.8824 53.7173C22.8892 54.4885 25.1105 54.4885 27.1173 53.7173L28.9839 53.0053C40.5108 48.56 47.958 37.418 47.9388 24.6211V10.8043C47.9388 9.76513 47.1305 8.91842 46.0914 8.87993C39.183 8.61052 32.1206 5.89719 25.1352 0.778418C24.4617 0.297331 23.538 0.297331 22.8645 0.778418C15.8791 5.89719 8.81674 8.61052 1.90832 8.87993C0.869173 8.91842 0.0609462 9.76513 0.0609462 10.8043ZM13.2427 25.7757C13.9932 25.0252 15.2248 25.0252 15.9753 25.7757L21.4212 31.2216L32.0244 20.6185C32.7749 19.868 34.0065 19.868 34.757 20.6185C35.5075 21.369 35.5075 22.5813 34.757 23.3318L22.7875 35.3012C22.4219 35.6669 21.9216 35.8593 21.4212 35.8593C21.1678 35.8618 20.9165 35.8138 20.6818 35.718C20.4472 35.6221 20.2341 35.4805 20.0549 35.3012L13.2427 28.4891C13.0643 28.311 12.9228 28.0996 12.8262 27.8668C12.7297 27.634 12.68 27.3844 12.68 27.1324C12.68 26.8804 12.7297 26.6308 12.8262 26.398C12.9228 26.1652 13.0643 25.9537 13.2427 25.7757Z" fill="url(#paint0_linear_2513_32)"/>
<defs>
<linearGradient id="paint0_linear_2513_32" x1="4.19169" y1="-39.9382" x2="53.0794" y2="-37.0847" gradientUnits="userSpaceOnUse">
<stop stop-color="#FF405E"/>
<stop offset="1" stop-color="#B8509C"/>
</linearGradient>
</defs>
</svg>
