<svg width="17" height="17" viewBox="0 0 17 17" fill="none" xmlns="http://www.w3.org/2000/svg">
<path d="M16.097 15.4209L12.0675 11.23C13.104 10.0004 13.672 8.44378 13.6712 6.83562C13.6712 3.06652 10.6047 0 6.83562 0C3.06652 0 0 3.06652 0 6.83562C0 10.6047 3.06652 13.6712 6.83562 13.6712C8.2506 13.6712 9.599 13.2445 10.7518 12.4343L14.8119 16.6569C14.9816 16.8332 15.2099 16.9303 15.4545 16.9303C15.686 16.9303 15.9056 16.8421 16.0723 16.6816C16.2425 16.5175 16.3407 16.2927 16.3453 16.0563C16.3499 15.82 16.2606 15.5915 16.097 15.4209ZM6.83562 1.78321C9.62158 1.78321 11.888 4.04966 11.888 6.83562C11.888 9.62158 9.62158 11.888 6.83562 11.888C4.04966 11.888 1.78321 9.62158 1.78321 6.83562C1.78321 4.04966 4.04966 1.78321 6.83562 1.78321Z" fill="black"/>
</svg>
