<svg width="14" height="10" viewBox="0 0 14 10" fill="none" xmlns="http://www.w3.org/2000/svg">
<path d="M13.6629 1.72345C13.5062 1.14079 13.0468 0.681497 12.4642 0.524601C11.3999 0.233398 7.14268 0.233398 7.14268 0.233398C7.14268 0.233398 2.88559 0.233398 1.8213 0.513572C1.24993 0.670298 0.779344 1.1409 0.622617 1.72345C0.342529 2.78766 0.342529 4.99473 0.342529 4.99473C0.342529 4.99473 0.342529 7.21288 0.622617 8.26596C0.779492 8.84853 1.23873 9.30785 1.82139 9.46472C2.89679 9.75601 7.14285 9.75601 7.14285 9.75601C7.14285 9.75601 11.3999 9.75601 12.4642 9.47584C13.0469 9.31903 13.5062 8.85973 13.6631 8.27716C13.9431 7.21286 13.9431 5.0059 13.9431 5.0059C13.9431 5.0059 13.9543 2.78764 13.6629 1.72345ZM5.78725 7.03365V2.95574L9.32737 4.99468L5.78725 7.03365Z" fill="#F44166"/>
</svg>
